<svg width="550" height="186" viewBox="0 0 550 186" fill="none" xmlns="http://www.w3.org/2000/svg">
<path d="M224.965 30.8082C224.964 29.033 225.302 27.2757 225.958 25.6407C226.614 24.0058 227.575 22.5266 228.784 21.2912C229.992 20.0557 231.425 19.0891 232.995 18.4489C234.565 17.8087 236.241 17.5079 237.924 17.5644C241.263 17.4485 244.525 18.6369 247.085 20.9017C247.263 21.0325 247.41 21.2054 247.514 21.4066C247.619 21.6079 247.677 21.8319 247.684 22.061C247.659 22.4524 247.494 22.819 247.221 23.0864C246.949 23.3539 246.591 23.5022 246.219 23.5013C245.872 23.4832 245.537 23.3613 245.253 23.15C243.232 21.2393 240.604 20.1987 237.89 20.2342C236.569 20.2005 235.255 20.4501 234.028 20.9678C232.801 21.4855 231.687 22.2605 230.752 23.246C229.818 24.2314 229.083 25.4066 228.592 26.7005C228.101 27.9944 227.865 29.3799 227.896 30.7731V30.7731C227.896 33.5682 228.949 36.2488 230.824 38.2252C232.698 40.2016 235.24 41.312 237.89 41.312C240.723 41.3588 243.46 40.2369 245.519 38.1854C245.76 37.9388 246.083 37.8003 246.419 37.799C246.773 37.7981 247.114 37.939 247.374 38.1932C247.634 38.4475 247.792 38.7963 247.818 39.1691C247.813 39.3641 247.769 39.5559 247.689 39.7316C247.608 39.9073 247.493 40.0628 247.351 40.1878C244.766 42.7132 241.347 44.0745 237.824 43.9818C236.151 44.0384 234.486 43.7393 232.925 43.1022C231.365 42.4651 229.942 41.5032 228.742 40.2737C227.542 39.0443 226.589 37.5725 225.94 35.9463C225.291 34.32 224.96 32.5726 224.965 30.8082V30.8082Z" fill="white"/>
<path d="M249.85 41.6644L260.244 18.9005C260.374 18.4938 260.627 18.1432 260.964 17.9022C261.301 17.6612 261.703 17.543 262.109 17.5655C262.499 17.5423 262.885 17.653 263.209 17.8811C263.534 18.1092 263.779 18.4423 263.908 18.8302L274.335 41.559C274.378 41.8029 274.378 42.0529 274.335 42.2968C274.331 42.4844 274.291 42.6692 274.218 42.8403C274.145 43.0115 274.04 43.1654 273.91 43.2931C273.779 43.4208 273.626 43.5197 273.459 43.5839C273.292 43.648 273.114 43.6762 272.936 43.6668C272.625 43.6611 272.323 43.5578 272.068 43.3701C271.813 43.1824 271.616 42.9188 271.504 42.6129L268.839 36.7112H255.08L252.382 42.6832C252.283 42.9789 252.097 43.2337 251.852 43.4106C251.606 43.5875 251.313 43.6772 251.016 43.6668C250.847 43.6763 250.678 43.6499 250.519 43.5892C250.36 43.5286 250.214 43.4349 250.09 43.3137C249.965 43.1925 249.865 43.0463 249.796 42.8837C249.726 42.7211 249.688 42.5454 249.684 42.367C249.682 42.1217 249.739 41.8798 249.85 41.6644V41.6644ZM267.973 34.1467L262.109 21.0785L256.213 34.1467H267.973Z" fill="white"/>
<path d="M277.367 40.5045C277.191 40.3817 277.048 40.2145 276.949 40.0182C276.85 39.8219 276.799 39.6027 276.801 39.3804C276.805 39.1912 276.845 39.0048 276.917 38.8318C276.99 38.6588 277.094 38.5026 277.224 38.3721C277.354 38.2416 277.507 38.1394 277.675 38.0713C277.842 38.0032 278.021 37.9705 278.2 37.9752C278.525 37.9726 278.841 38.0838 279.099 38.2914C281.35 40.3244 284.232 41.4124 287.195 41.3477C290.526 41.3477 292.891 39.5209 292.891 36.9916C292.891 34.6379 291.625 33.2679 286.228 32.1437C280.832 31.0196 277.6 28.8415 277.6 24.5909C277.6 20.551 281.165 17.5649 286.029 17.5649C288.947 17.4603 291.819 18.347 294.224 20.0943C294.459 20.2645 294.637 20.5101 294.73 20.7949C294.823 21.0797 294.827 21.3885 294.742 21.6759C294.656 21.9632 294.485 22.2139 294.253 22.3908C294.022 22.5678 293.743 22.6617 293.457 22.6587C293.146 22.6746 292.84 22.5752 292.591 22.3777C290.649 20.9138 288.316 20.1388 285.929 20.1645C282.597 20.1645 280.465 21.9913 280.465 24.3098C280.465 26.7338 281.798 28.0687 287.428 29.2982C293.058 30.5278 295.789 32.8112 295.789 36.5349C295.789 40.9261 292.125 43.8067 287.028 43.8067C283.549 43.8712 280.149 42.709 277.367 40.5045V40.5045Z" fill="white"/>
<path d="M297.853 41.6641L308.28 18.9002C308.409 18.4995 308.657 18.1533 308.987 17.9128C309.317 17.6723 309.712 17.5505 310.112 17.5653V17.5653C310.501 17.5476 310.884 17.6606 311.208 17.888C311.531 18.1153 311.778 18.4452 311.911 18.8299L322.305 41.5588C322.428 41.7836 322.497 42.037 322.505 42.2965C322.501 42.4841 322.461 42.6689 322.388 42.84C322.315 43.0112 322.21 43.1651 322.08 43.2928C321.949 43.4205 321.796 43.5194 321.629 43.5836C321.461 43.6478 321.284 43.676 321.106 43.6665C320.795 43.6608 320.492 43.5575 320.237 43.3698C319.982 43.1821 319.786 42.9185 319.673 42.6126L317.008 36.7109H303.15L300.485 42.6829C300.384 42.9846 300.194 43.2437 299.941 43.4211C299.689 43.5985 299.389 43.6846 299.086 43.6665C298.918 43.6761 298.751 43.6495 298.594 43.5885C298.436 43.5275 298.293 43.4333 298.171 43.3116C298.049 43.1899 297.953 43.0434 297.886 42.8809C297.82 42.7185 297.786 42.5435 297.787 42.3667C297.763 42.1302 297.785 41.891 297.853 41.6641V41.6641ZM316.009 34.1464L310.112 21.0782L304.216 34.1464H316.009Z" fill="white"/>
<path d="M335.496 19.3915C335.505 18.9969 335.66 18.6217 335.927 18.346C336.195 18.0702 336.554 17.9159 336.929 17.916H344.391C352.452 17.916 358.049 23.4665 358.049 30.668C358.049 37.9047 352.452 43.4903 344.391 43.4903H336.929C336.56 43.4908 336.205 43.3413 335.939 43.073C335.672 42.8048 335.513 42.4383 335.496 42.05V19.3915ZM344.391 40.8907C345.729 41.0272 347.079 40.8687 348.356 40.4253C349.633 39.9819 350.808 39.2633 351.808 38.3152C352.807 37.367 353.608 36.2101 354.161 34.9178C354.714 33.6255 355.005 32.2261 355.018 30.8086C355.004 29.3883 354.713 27.9863 354.161 26.6907C353.609 25.3951 352.809 24.234 351.811 23.2804C350.812 22.3268 349.638 21.6013 348.361 21.1497C347.084 20.6981 345.732 20.53 344.391 20.6561H338.394V40.961L344.391 40.8907Z" fill="white"/>
<path d="M362.281 42.1559V19.3919C362.29 18.9974 362.445 18.6222 362.712 18.3464C362.98 18.0707 363.34 17.9164 363.714 17.9165H379.771C379.941 17.9118 380.111 17.9426 380.27 18.0072C380.43 18.0718 380.575 18.1688 380.699 18.2928C380.823 18.4168 380.922 18.5652 380.992 18.7297C381.061 18.8942 381.099 19.0715 381.103 19.2514C381.099 19.4298 381.061 19.6055 380.991 19.7681C380.921 19.9307 380.821 20.0769 380.697 20.1981C380.573 20.3193 380.427 20.413 380.268 20.4736C380.109 20.5343 379.94 20.5606 379.771 20.5512H365.313V29.3336H378.138C378.319 29.3023 378.505 29.3129 378.682 29.3647C378.859 29.4165 379.023 29.5082 379.163 29.6336C379.302 29.7589 379.415 29.9148 379.492 30.0905C379.569 30.2661 379.609 30.4574 379.609 30.6509C379.609 30.8445 379.569 31.0358 379.492 31.2114C379.415 31.3871 379.302 31.543 379.163 31.6683C379.023 31.7936 378.859 31.8854 378.682 31.9372C378.505 31.989 378.319 31.9996 378.138 31.9683H365.313V40.9263H379.771C379.94 40.9216 380.108 40.9527 380.265 41.0177C380.423 41.0827 380.566 41.1803 380.687 41.3047C380.809 41.4291 380.905 41.5779 380.97 41.7422C381.036 41.9065 381.07 42.083 381.07 42.2613C381.07 42.438 381.036 42.613 380.97 42.7755C380.904 42.9379 380.807 43.0845 380.686 43.2061C380.564 43.3278 380.42 43.422 380.263 43.483C380.106 43.5441 379.938 43.5706 379.771 43.5611H363.647C363.296 43.5447 362.962 43.3924 362.71 43.1332C362.458 42.874 362.305 42.5261 362.281 42.1559V42.1559Z" fill="white"/>
<path d="M384.5 19.2151C384.5 18.8238 384.647 18.4485 384.91 18.1718C385.172 17.8951 385.528 17.7397 385.899 17.7397C386.282 17.7301 386.654 17.8792 386.934 18.155C387.214 18.4308 387.381 18.8113 387.398 19.2151V40.8901H400.723C401.068 40.8901 401.399 41.0344 401.642 41.2913C401.886 41.5483 402.023 41.8968 402.023 42.2601C402.023 42.4369 401.989 42.6118 401.923 42.7743C401.857 42.9368 401.76 43.0833 401.638 43.205C401.517 43.3266 401.373 43.4209 401.216 43.4819C401.058 43.5429 400.891 43.5695 400.723 43.5599H385.932C385.567 43.56 385.216 43.4094 384.955 43.1403C384.693 42.8711 384.542 42.5048 384.533 42.1196L384.5 19.2151Z" fill="white"/>
<path d="M224.898 62.8116C224.916 61.9597 225.093 61.1197 225.419 60.3401C225.745 59.5605 226.214 58.8566 226.799 58.269C227.384 57.6813 228.074 57.2214 228.828 56.9158C229.583 56.6102 230.387 56.4649 231.195 56.4883H263.375C264.126 56.4263 264.881 56.5288 265.593 56.7893C266.305 57.0498 266.958 57.4628 267.511 58.0022C268.064 58.5416 268.505 59.1958 268.807 59.9237C269.109 60.6516 269.265 61.4375 269.265 62.232C269.265 63.0264 269.109 63.8123 268.807 64.5402C268.505 65.2681 268.064 65.9223 267.511 66.4617C266.958 67.0011 266.305 67.4141 265.593 67.6746C264.881 67.9351 264.126 68.0376 263.375 67.9756H237.524V80.2007H259.844C260.595 80.1387 261.35 80.2412 262.062 80.5018C262.773 80.7623 263.426 81.1752 263.98 81.7146C264.533 82.254 264.974 82.9083 265.276 83.6362C265.578 84.3641 265.733 85.1499 265.733 85.9444C265.733 86.7389 265.578 87.5247 265.276 88.2526C264.974 88.9806 264.533 89.6348 263.98 90.1742C263.426 90.7136 262.773 91.1265 262.062 91.3871C261.35 91.6476 260.595 91.7501 259.844 91.6881H237.524V108.094C237.408 109.776 236.693 111.349 235.522 112.497C234.35 113.646 232.811 114.284 231.211 114.284C229.612 114.284 228.072 113.646 226.901 112.497C225.73 111.349 225.014 109.776 224.898 108.094V62.8116Z" fill="white"/>
<path d="M272.668 89.3348V62.3201C272.784 60.6381 273.499 59.0647 274.67 57.9163C275.842 56.7678 277.382 56.1294 278.981 56.1294C280.58 56.1294 282.12 56.7678 283.291 57.9163C284.462 59.0647 285.178 60.6381 285.294 62.3201V88.9835C285.294 98.3279 289.991 103.035 297.686 103.035C305.381 103.035 310.079 98.3631 310.079 89.2645V62.3201C310.079 60.5499 310.745 58.8522 311.932 57.6005C313.119 56.3487 314.729 55.6455 316.408 55.6455C318.087 55.6455 319.697 56.3487 320.884 57.6005C322.071 58.8522 322.737 60.5499 322.737 62.3201V88.9132C322.737 106.478 312.977 114.839 297.52 114.839C282.062 114.839 272.668 106.232 272.668 89.3348Z" fill="white"/>
<path d="M344.056 68.1513H331.897C330.431 68.1513 329.024 67.5369 327.987 66.4433C326.95 65.3497 326.367 63.8664 326.367 62.3198C326.367 60.7732 326.95 59.2899 327.987 58.1963C329.024 57.1027 330.431 56.4883 331.897 56.4883H368.841C370.308 56.4883 371.715 57.1027 372.752 58.1963C373.789 59.2899 374.371 60.7732 374.371 62.3198C374.371 63.8664 373.789 65.3497 372.752 66.4433C371.715 67.5369 370.308 68.1513 368.841 68.1513H356.682V108.094C356.566 109.776 355.851 111.349 354.68 112.497C353.508 113.646 351.968 114.284 350.369 114.284C348.77 114.284 347.23 113.646 346.059 112.497C344.888 111.349 344.172 109.776 344.056 108.094V68.1513Z" fill="white"/>
<path d="M378.004 89.3348V62.3201C378.004 60.5499 378.671 58.8522 379.858 57.6005C381.045 56.3487 382.655 55.6455 384.333 55.6455C386.012 55.6455 387.622 56.3487 388.809 57.6005C389.996 58.8522 390.663 60.5499 390.663 62.3201V88.9835C390.663 98.3279 395.327 103.035 403.055 103.035C410.784 103.035 415.448 98.3631 415.448 89.2645V62.3201C415.564 60.6381 416.279 59.0647 417.45 57.9163C418.621 56.7678 420.161 56.1294 421.761 56.1294C423.36 56.1294 424.9 56.7678 426.071 57.9163C427.242 59.0647 427.957 60.6381 428.073 62.3201V88.9132C428.073 106.478 418.313 114.839 402.889 114.839C387.465 114.839 378.004 106.232 378.004 89.3348Z" fill="white"/>
<path d="M437.137 62.8121C437.154 61.9571 437.332 61.1142 437.66 60.3323C437.988 59.5503 438.461 58.8448 439.049 58.2567C439.638 57.6686 440.332 57.2095 441.09 56.906C441.848 56.6025 442.656 56.4607 443.466 56.4888H463.454C469.51 56.1117 475.471 58.199 480.111 62.3203C481.75 64.0309 483.035 66.082 483.884 68.3437C484.733 70.6053 485.127 73.0281 485.041 75.4587V75.4587C485.22 79.311 484.191 83.1182 482.114 86.2927C480.037 89.4672 477.027 91.8325 473.548 93.0235L482.343 103.562C483.586 104.828 484.315 106.554 484.375 108.375C484.349 109.175 484.173 109.961 483.857 110.689C483.541 111.416 483.09 112.07 482.533 112.613C481.975 113.155 481.32 113.576 480.607 113.849C479.894 114.123 479.136 114.244 478.378 114.207C477.169 114.219 475.974 113.93 474.892 113.362C473.809 112.794 472.869 111.964 472.149 110.94L459.856 95.3421H449.862V107.883C449.862 109.654 449.195 111.351 448.008 112.603C446.821 113.855 445.212 114.558 443.533 114.558C441.854 114.558 440.244 113.855 439.057 112.603C437.87 111.351 437.203 109.654 437.203 107.883L437.137 62.8121ZM462.588 84.3114C468.751 84.3114 472.282 81.0443 472.282 76.1965V76.0208C472.282 70.6109 468.484 67.8356 462.288 67.8356H449.729V84.3114H462.588Z" fill="white"/>
<path d="M488.938 85.3651C488.938 69.0299 501.83 55.6455 519.552 55.6455C537.275 55.6455 550 68.8542 550 85.1895V85.3651C550 101.7 537.108 115.05 519.386 115.05C501.663 115.05 488.938 101.876 488.938 85.3651ZM536.808 85.3651C536.827 82.9616 536.387 80.5787 535.514 78.3584C534.641 76.138 533.354 74.1255 531.728 72.4407C530.102 70.7559 528.172 69.4333 526.052 68.5516C523.931 67.6699 521.664 67.2472 519.386 67.3085C517.126 67.227 514.874 67.6317 512.767 68.4978C510.66 69.3639 508.742 70.6734 507.131 72.3464C505.519 74.0194 504.248 76.0209 503.394 78.2289C502.54 80.4369 502.121 82.8052 502.163 85.1895V85.3651C502.162 87.7659 502.618 90.1425 503.505 92.3537C504.392 94.5648 505.691 96.5654 507.326 98.2366C508.96 99.9079 510.897 101.216 513.02 102.082C515.143 102.949 517.41 103.357 519.685 103.281C521.94 103.348 524.184 102.932 526.282 102.057C528.379 101.182 530.286 99.8673 531.887 98.192C533.488 96.5167 534.75 94.516 535.596 92.3111C536.442 90.1062 536.854 87.7431 536.808 85.3651Z" fill="white"/>
<path d="M535.542 128.926C535.524 129.618 535.249 130.276 534.775 130.756C534.301 131.236 533.667 131.5 533.01 131.49H227.296C226.967 131.5 226.641 131.441 226.334 131.317C226.028 131.193 225.747 131.007 225.509 130.768C225.271 130.53 225.08 130.245 224.946 129.929C224.812 129.613 224.739 129.272 224.73 128.926C224.739 128.58 224.812 128.239 224.946 127.923C225.08 127.607 225.271 127.321 225.509 127.083C225.747 126.845 226.028 126.659 226.334 126.535C226.641 126.411 226.967 126.352 227.296 126.361H533.01C533.667 126.352 534.301 126.616 534.775 127.096C535.249 127.576 535.524 128.233 535.542 128.926V128.926Z" fill="white"/>
<path d="M224.33 153.587C224.325 152.217 224.582 150.861 225.086 149.599C225.591 148.337 226.332 147.196 227.266 146.245C228.2 145.293 229.306 144.55 230.519 144.061C231.732 143.572 233.026 143.347 234.324 143.399C236.704 143.315 239.044 144.055 240.987 145.507C241.119 145.607 241.228 145.738 241.303 145.891C241.378 146.044 241.418 146.213 241.42 146.385C241.42 146.536 241.391 146.685 241.335 146.823C241.28 146.962 241.198 147.088 241.096 147.193C240.993 147.297 240.872 147.379 240.739 147.434C240.605 147.488 240.463 147.514 240.32 147.509C240.065 147.494 239.821 147.396 239.621 147.228C238.041 146.003 236.117 145.372 234.157 145.436C233.153 145.418 232.156 145.612 231.225 146.007C230.293 146.402 229.447 146.991 228.735 147.738C228.023 148.485 227.461 149.375 227.082 150.356C226.703 151.336 226.515 152.387 226.529 153.446V153.446C226.479 154.548 226.651 155.649 227.035 156.676C227.418 157.703 228.004 158.632 228.754 159.403C229.503 160.173 230.399 160.767 231.382 161.145C232.365 161.523 233.413 161.677 234.457 161.596C236.509 161.614 238.51 160.923 240.154 159.629V154.851H234.857C234.717 154.879 234.574 154.874 234.436 154.836C234.299 154.799 234.171 154.73 234.062 154.634C233.952 154.539 233.864 154.419 233.804 154.283C233.744 154.148 233.712 154 233.712 153.85C233.712 153.7 233.744 153.552 233.804 153.417C233.864 153.281 233.952 153.161 234.062 153.066C234.171 152.97 234.299 152.901 234.436 152.864C234.574 152.826 234.717 152.821 234.857 152.849H241.22C241.506 152.849 241.78 152.966 241.986 153.176C242.191 153.386 242.31 153.672 242.319 153.973V159.98C242.315 160.254 242.242 160.522 242.107 160.757C241.973 160.992 241.781 161.184 241.553 161.315C239.457 162.874 236.955 163.708 234.391 163.704C233.086 163.797 231.778 163.602 230.548 163.133C229.319 162.664 228.196 161.931 227.249 160.979C226.303 160.028 225.555 158.879 225.053 157.607C224.55 156.334 224.304 154.965 224.33 153.587V153.587Z" fill="white"/>
<path d="M251.746 153.588C251.746 150.793 252.799 148.112 254.673 146.136C256.547 144.159 259.089 143.049 261.74 143.049C264.391 143.049 266.933 144.159 268.807 146.136C270.681 148.112 271.734 150.793 271.734 153.588C271.734 156.383 270.681 159.063 268.807 161.04C266.933 163.016 264.391 164.127 261.74 164.127C259.089 164.127 256.547 163.016 254.673 161.04C252.799 159.063 251.746 156.383 251.746 153.588ZM269.535 153.588C269.549 152.51 269.357 151.441 268.971 150.444C268.586 149.446 268.014 148.541 267.29 147.78C266.566 147.02 265.705 146.421 264.757 146.019C263.809 145.616 262.795 145.419 261.773 145.438C260.757 145.409 259.745 145.598 258.799 145.993C257.854 146.388 256.994 146.981 256.272 147.736C255.549 148.491 254.98 149.393 254.597 150.386C254.214 151.38 254.026 152.445 254.045 153.517V153.517C254.04 154.592 254.239 155.656 254.631 156.648C255.023 157.64 255.599 158.539 256.326 159.292C257.052 160.045 257.915 160.637 258.862 161.033C259.809 161.429 260.821 161.621 261.84 161.597C262.848 161.621 263.851 161.431 264.788 161.038C265.725 160.645 266.578 160.057 267.296 159.31C268.013 158.563 268.581 157.672 268.966 156.689C269.351 155.706 269.544 154.651 269.535 153.588V153.588Z" fill="white"/>
<path d="M281.996 144.769C282.005 144.468 282.124 144.182 282.33 143.972C282.535 143.762 282.81 143.645 283.095 143.645H288.859C290.166 143.52 291.484 143.678 292.732 144.11C293.979 144.542 295.13 145.238 296.113 146.156C297.095 147.074 297.89 148.194 298.447 149.448C299.004 150.702 299.312 152.062 299.352 153.446V153.446C299.316 154.835 299.012 156.2 298.457 157.46C297.902 158.72 297.109 159.846 296.126 160.771C295.143 161.695 293.992 162.398 292.742 162.836C291.492 163.274 290.171 163.438 288.859 163.318H283.162C282.876 163.318 282.601 163.201 282.396 162.991C282.191 162.781 282.071 162.495 282.063 162.194L281.996 144.769ZM288.859 161.315C289.886 161.423 290.923 161.303 291.903 160.965C292.884 160.626 293.787 160.076 294.555 159.348C295.323 158.621 295.939 157.733 296.363 156.741C296.788 155.749 297.011 154.675 297.02 153.587V153.587C297.011 152.496 296.787 151.419 296.363 150.424C295.939 149.428 295.325 148.536 294.558 147.804C293.791 147.071 292.889 146.514 291.908 146.167C290.927 145.82 289.889 145.691 288.859 145.788H284.228V161.386L288.859 161.315Z" fill="white"/>
<path d="M308.48 153.588C308.48 150.793 309.533 148.112 311.408 146.136C313.282 144.159 315.824 143.049 318.474 143.049C321.125 143.049 323.667 144.159 325.541 146.136C327.415 148.112 328.468 150.793 328.468 153.588V153.588C328.468 156.383 327.415 159.063 325.541 161.04C323.667 163.016 321.125 164.127 318.474 164.127C315.824 164.127 313.282 163.016 311.408 161.04C309.533 159.063 308.48 156.383 308.48 153.588V153.588ZM326.303 153.588C326.317 152.507 326.124 151.435 325.736 150.435C325.348 149.436 324.774 148.528 324.046 147.768C323.319 147.007 322.453 146.409 321.502 146.008C320.55 145.608 319.532 145.414 318.508 145.438C317.492 145.414 316.483 145.606 315.539 146.003C314.596 146.4 313.738 146.993 313.016 147.747C312.295 148.501 311.725 149.401 311.341 150.392C310.956 151.384 310.765 152.446 310.779 153.517C310.779 155.688 311.597 157.77 313.052 159.305C314.508 160.84 316.482 161.703 318.541 161.703C320.6 161.703 322.574 160.84 324.03 159.305C325.485 157.77 326.303 155.688 326.303 153.517V153.588Z" fill="white"/>
<path d="M343.326 155.624L335.997 145.366C335.84 145.141 335.748 144.873 335.73 144.594C335.756 144.289 335.891 144.007 336.108 143.804C336.325 143.602 336.607 143.494 336.896 143.505C337.111 143.519 337.32 143.587 337.505 143.703C337.691 143.819 337.847 143.98 337.962 144.172L344.625 153.587L351.288 144.172C351.393 143.979 351.543 143.816 351.723 143.7C351.904 143.583 352.109 143.516 352.32 143.505C352.46 143.5 352.6 143.524 352.731 143.577C352.862 143.629 352.982 143.708 353.084 143.809C353.186 143.91 353.268 144.031 353.326 144.166C353.384 144.301 353.415 144.446 353.42 144.594C353.385 144.896 353.283 145.185 353.12 145.437L345.791 155.589V162.404C345.745 162.682 345.608 162.933 345.404 163.114C345.2 163.295 344.942 163.395 344.675 163.395C344.408 163.395 344.15 163.295 343.946 163.114C343.742 162.933 343.605 162.682 343.559 162.404L343.326 155.624Z" fill="white"/>
<path d="M376.07 153.586C376.07 152.218 376.33 150.864 376.836 149.605C377.342 148.345 378.084 147.206 379.017 146.255C379.949 145.305 381.054 144.562 382.265 144.071C383.476 143.58 384.768 143.351 386.064 143.399C388.627 143.31 391.13 144.223 393.093 145.963C393.23 146.061 393.344 146.192 393.425 146.344C393.506 146.497 393.552 146.667 393.56 146.841C393.543 147.143 393.415 147.425 393.203 147.628C392.992 147.832 392.713 147.94 392.427 147.93C392.166 147.919 391.913 147.834 391.694 147.684C390.137 146.219 388.118 145.417 386.031 145.436C385.021 145.417 384.018 145.613 383.082 146.013C382.146 146.412 381.297 147.008 380.584 147.762C379.872 148.517 379.311 149.415 378.936 150.404C378.561 151.393 378.38 152.451 378.402 153.516V153.516C378.389 154.578 378.577 155.632 378.955 156.616C379.333 157.601 379.894 158.495 380.605 159.248C381.315 160.001 382.161 160.596 383.093 160.999C384.025 161.402 385.024 161.605 386.031 161.596C388.206 161.634 390.309 160.777 391.894 159.207C392.081 159.011 392.331 158.898 392.594 158.891C392.865 158.89 393.127 158.999 393.325 159.195C393.523 159.391 393.643 159.659 393.66 159.945C393.659 160.099 393.625 160.252 393.562 160.392C393.499 160.531 393.407 160.655 393.293 160.753C391.295 162.676 388.669 163.709 385.964 163.633C384.684 163.68 383.407 163.456 382.211 162.972C381.014 162.489 379.922 161.757 378.999 160.82C378.076 159.882 377.342 158.759 376.838 157.517C376.335 156.274 376.074 154.937 376.07 153.586V153.586Z" fill="white"/>
<path d="M403.289 144.769C403.298 144.467 403.417 144.181 403.623 143.971C403.828 143.762 404.103 143.644 404.388 143.644H411.784C413.819 143.527 415.819 144.231 417.381 145.612C417.874 146.118 418.264 146.724 418.528 147.395C418.791 148.065 418.922 148.785 418.913 149.511C418.881 150.989 418.322 152.4 417.346 153.462C416.37 154.524 415.05 155.158 413.649 155.237L418.546 161.596C418.658 161.703 418.748 161.833 418.81 161.978C418.873 162.123 418.908 162.28 418.913 162.439C418.881 162.734 418.748 163.007 418.54 163.207C418.332 163.407 418.062 163.521 417.78 163.528C417.575 163.524 417.374 163.468 417.194 163.364C417.014 163.259 416.861 163.111 416.748 162.931L411.184 155.729H405.521V162.404C405.475 162.681 405.338 162.932 405.134 163.113C404.93 163.295 404.672 163.394 404.405 163.394C404.138 163.394 403.88 163.295 403.676 163.113C403.472 162.932 403.335 162.681 403.289 162.404V144.769ZM411.584 153.727C414.549 153.727 416.648 152.181 416.648 149.652C416.648 147.228 414.782 145.787 411.617 145.787H405.521V153.797L411.584 153.727Z" fill="white"/>
<path d="M428.773 155.133V144.594C428.79 144.296 428.912 144.015 429.116 143.807C429.319 143.599 429.589 143.479 429.873 143.47C430.017 143.466 430.161 143.491 430.296 143.545C430.431 143.599 430.555 143.68 430.66 143.785C430.765 143.889 430.85 144.014 430.909 144.153C430.968 144.292 431.001 144.442 431.005 144.594V154.958C430.904 155.831 430.988 156.717 431.251 157.552C431.515 158.387 431.951 159.149 432.528 159.785C433.105 160.42 433.808 160.912 434.588 161.226C435.367 161.539 436.203 161.666 437.035 161.597C437.857 161.688 438.687 161.582 439.465 161.288C440.243 160.994 440.947 160.518 441.527 159.897C442.106 159.276 442.545 158.525 442.812 157.7C443.078 156.876 443.164 155.998 443.065 155.133V144.594C443.11 144.317 443.247 144.066 443.451 143.885C443.656 143.703 443.914 143.604 444.181 143.604C444.448 143.604 444.706 143.703 444.91 143.885C445.114 144.066 445.251 144.317 445.297 144.594V154.923C445.297 157.224 444.43 159.431 442.887 161.058C441.344 162.685 439.251 163.6 437.068 163.6C434.886 163.6 432.793 162.685 431.25 161.058C429.707 159.431 428.84 157.224 428.84 154.923L428.773 155.133Z" fill="white"/>
<path d="M454.426 162.439C454.426 162.255 454.462 162.073 454.531 161.904C454.599 161.735 454.7 161.583 454.826 161.455L467.185 145.717H455.758C455.619 145.745 455.475 145.74 455.338 145.702C455.2 145.665 455.072 145.596 454.963 145.5C454.854 145.405 454.766 145.285 454.705 145.149C454.645 145.014 454.614 144.866 454.614 144.716C454.614 144.566 454.645 144.418 454.705 144.283C454.766 144.147 454.854 144.027 454.963 143.932C455.072 143.836 455.2 143.767 455.338 143.73C455.475 143.692 455.619 143.687 455.758 143.715H469.083C469.338 143.705 469.586 143.797 469.778 143.973C469.97 144.149 470.091 144.396 470.116 144.663V144.663C470.115 144.847 470.08 145.029 470.011 145.198C469.942 145.367 469.842 145.52 469.716 145.647L457.357 161.385H469.25C469.39 161.357 469.533 161.362 469.671 161.4C469.808 161.437 469.936 161.506 470.045 161.602C470.155 161.698 470.243 161.818 470.303 161.953C470.363 162.089 470.395 162.236 470.395 162.386C470.395 162.536 470.363 162.684 470.303 162.819C470.243 162.955 470.155 163.075 470.045 163.17C469.936 163.266 469.808 163.335 469.671 163.373C469.533 163.41 469.39 163.415 469.25 163.387H455.359C455.122 163.372 454.898 163.268 454.727 163.094C454.556 162.92 454.449 162.688 454.426 162.439V162.439Z" fill="white"/>
<path d="M92.8436 0C41.6414 0 0 41.6285 0 92.8123C0 143.996 41.6414 185.66 92.8436 185.66C103.028 185.651 113.147 183.943 122.825 180.601V180.601C123.668 180.346 124.411 179.812 124.944 179.079C125.478 178.345 125.774 177.45 125.79 176.526C125.782 175.364 125.34 174.253 124.561 173.431C123.782 172.61 122.728 172.144 121.626 172.135C121.068 172.128 120.513 172.236 119.994 172.451V172.451C111.237 175.456 102.086 176.985 92.8769 176.983C46.4384 176.983 8.6614 139.218 8.6614 92.6718C8.6614 46.1251 46.4384 8.36083 92.8769 8.36083C139.315 8.36083 177.059 46.1251 177.059 92.6718C176.985 105.004 174.286 117.161 169.16 128.245C164.034 139.329 156.613 149.058 147.444 156.713C146.966 157.106 146.577 157.606 146.306 158.177C146.036 158.748 145.889 159.376 145.878 160.015C145.895 160.596 146.021 161.169 146.248 161.699C146.475 162.229 146.799 162.707 147.201 163.105C147.603 163.503 148.076 163.813 148.592 164.018C149.108 164.224 149.657 164.32 150.209 164.301C151.141 164.306 152.051 163.999 152.807 163.423V163.423C162.977 154.987 171.211 144.242 176.898 131.986C182.585 119.731 185.578 106.281 185.654 92.6366C185.654 41.6285 144.012 0 92.8436 0Z" fill="white"/>
<path d="M121.792 145.436C126.099 145.53 130.266 143.826 133.386 140.693C136.507 137.561 138.326 133.255 138.448 128.714V102.472C141.935 101.764 145.085 99.8147 147.372 96.9497C149.658 94.0846 150.941 90.4782 151.007 86.7344C150.992 84.4501 150.508 82.1964 149.588 80.1284C148.668 78.0604 147.334 76.2273 145.677 74.7552L105.368 33.5482L104.569 32.7403L104.169 32.3538C101.183 29.7523 97.4316 28.3291 93.5587 28.3291C89.6859 28.3291 85.934 29.7523 82.9485 32.3538L82.7487 32.5295L81.6826 33.5834L40.2745 74.439C39.647 74.9794 39.0569 75.5664 38.5089 76.1955V76.1955C36.044 79.0881 34.6899 82.8456 34.7112 86.7344C34.767 90.2706 35.9167 93.6907 37.9853 96.4746C40.0539 99.2584 42.9282 101.253 46.1709 102.156L46.4707 102.859H46.9371V128.714C47.0506 133.258 48.8673 137.57 51.9893 140.704C55.1114 143.838 59.2842 145.54 63.5936 145.436H82.0158V104.088C82.0244 103.752 82.0959 103.42 82.2261 103.112C82.3564 102.805 82.5429 102.527 82.7749 102.295C83.0069 102.064 83.28 101.883 83.5784 101.762C83.8769 101.642 84.1949 101.585 84.5142 101.594H101.271C101.59 101.585 101.908 101.642 102.207 101.762C102.505 101.883 102.778 102.064 103.01 102.295C103.242 102.527 103.429 102.805 103.559 103.112C103.689 103.42 103.761 103.752 103.769 104.088V145.436H121.792ZM101.271 92.9523H84.4143C81.5394 92.8768 78.7535 94.0068 76.6676 96.0944C74.5817 98.1821 73.3662 101.057 73.2877 104.088V136.794H63.4937C61.4109 136.841 59.3948 136.019 57.8847 134.505C56.3746 132.992 55.493 130.91 55.4319 128.714V94.217H50.335H49.7687C47.9853 94.0698 46.3169 93.2304 45.0863 91.8613C43.8556 90.4922 43.1501 88.6905 43.1061 86.8046C43.1097 85.0822 43.6875 83.4159 44.7384 82.0973C45.0238 81.765 45.3358 81.4594 45.6712 81.1839L86.3465 40.8903H86.613L87.8789 39.45C88.5986 38.6407 89.4681 37.9956 90.4335 37.5546C91.399 37.1136 92.44 36.8861 93.4921 36.8861C94.5443 36.8861 95.5853 37.1136 96.5507 37.5546C97.5162 37.9956 98.3857 38.6407 99.1054 39.45L100.405 40.8903L139.681 80.7975L139.914 81.0434C140.698 81.7222 141.331 82.5743 141.768 83.5395C142.206 84.5046 142.437 85.5593 142.446 86.629C142.42 87.6394 142.205 88.6346 141.815 89.5576C141.424 90.4805 140.864 91.3133 140.168 92.0082C139.472 92.7031 138.653 93.2465 137.758 93.6074C136.862 93.9683 135.908 94.1397 134.95 94.1116H129.92V128.609C129.894 129.698 129.665 130.77 129.246 131.766C128.826 132.761 128.225 133.66 127.477 134.41C126.728 135.161 125.846 135.748 124.882 136.139C123.918 136.53 122.891 136.717 121.858 136.689H112.397V104.088C112.319 101.057 111.103 98.1821 109.017 96.0944C106.932 94.0068 104.146 92.8768 101.271 92.9523V92.9523Z" fill="white"/>
<path d="M140.913 162.58C140.113 162.622 139.341 162.91 138.694 163.409C138.047 163.908 137.553 164.596 137.273 165.389C136.993 166.181 136.94 167.042 137.12 167.866C137.3 168.69 137.705 169.44 138.286 170.023C138.866 170.607 139.596 170.998 140.384 171.148C141.173 171.299 141.987 171.202 142.724 170.869C143.461 170.537 144.09 169.984 144.532 169.279C144.974 168.573 145.21 167.747 145.211 166.901C145.198 166.32 145.076 165.747 144.853 165.215C144.63 164.683 144.31 164.203 143.911 163.802C143.512 163.401 143.042 163.086 142.527 162.877C142.013 162.667 141.464 162.566 140.913 162.58V162.58Z" fill="white"/>
</svg>
